<?xml version="1.0" encoding="UTF-8" standalone="no"?>
<svg
   xmlns:dc="http://purl.org/dc/elements/1.1/"
   xmlns:cc="http://creativecommons.org/ns#"
   xmlns:rdf="http://www.w3.org/1999/02/22-rdf-syntax-ns#"
   xmlns:svg="http://www.w3.org/2000/svg"
   xmlns="http://www.w3.org/2000/svg"
   xmlns:sodipodi="http://sodipodi.sourceforge.net/DTD/sodipodi-0.dtd"
   xmlns:inkscape="http://www.inkscape.org/namespaces/inkscape"
   width="36.673mm"
   height="39.923mm"
   viewBox="0 0 36.673 39.923"
   version="1.1"
   id="svg1027"
   inkscape:version="1.0.1 (3bc2e813f5, 2020-09-07)"
   sodipodi:docname="icon.svg">
  <defs
     id="defs1021" />
  <sodipodi:namedview
     id="base"
     pagecolor="#ffffff"
     bordercolor="#666666"
     borderopacity="1.0"
     inkscape:pageopacity="0.0"
     inkscape:pageshadow="2"
     inkscape:zoom="0.35"
     inkscape:cx="792.85714"
     inkscape:cy="560"
     inkscape:document-units="mm"
     inkscape:current-layer="layer1"
     inkscape:document-rotation="0"
     showgrid="false"
     inkscape:window-width="1366"
     inkscape:window-height="745"
     inkscape:window-x="1592"
     inkscape:window-y="-8"
     inkscape:window-maximized="1" />
  <metadata
     id="metadata1024">
    <rdf:RDF>
      <cc:Work
         rdf:about="">
        <dc:format>image/svg+xml</dc:format>
        <dc:type
           rdf:resource="http://purl.org/dc/dcmitype/StillImage" />
        <dc:title />
      </cc:Work>
    </rdf:RDF>
  </metadata>
  <g
     inkscape:label="Layer 1"
     inkscape:groupmode="layer"
     id="layer1">
    <g
       id="g1804">
      <path
         d="m 11.87758,0.08403 c -0.30013,0.0871 -0.5906,0.59059 -0.93916,1.65561 -0.22268,0.68742 -0.27109,0.98757 -0.27109,1.83959 0,0.89075 0.0291,1.08439 0.25174,1.54911 0.29046,0.60997 0.91979,1.27803 1.48134,1.57818 0.71648,0.3679 5.81889,2.16876 5.84793,2.06226 C 18.28694,8.59451 17.52219,6.0675 17.10587,5.01216 16.37004,3.15322 15.57611,1.85583 14.63696,0.98446 13.7559,0.15179 12.77801,-0.16771 11.87758,0.08403 Z"
         id="path74"
         style="fill:#00ff00;stroke:none;stroke-width:0.00968203" />
      <path
         id="path86"
         style="fill:#ff003b;stroke:none;stroke-width:0.00968203;fill-opacity:1"
         d="m 27.60041,9.7223114 c -0.07533,0.00362 -0.173328,0.012197 -0.29919,0.024289 -0.309854,0.029101 -1.326727,0.1741197 -2.256208,0.3193596 -3.262842,0.532501 -5.228114,0.716479 -5.228114,0.513149 0,-0.01117 0.0079,-0.05045 0.0098,-0.06873 l -2.062427,0.233577 h -0.92964 c -1.636263,-0.01 -4.124484,-0.290354 -6.264222,-0.726054 -2.3914633,-0.4840891 -5.0831224,-0.1257956 -6.7484364,0.881084 -3.30155012,2.00416 -4.55054219,6.5737 -3.40804491,12.47004 0.91977101,4.70545 3.26307971,9.343413 6.32258911,12.480374 1.3167783,1.35549 2.3912777,2.158797 3.8338922,2.875278 1.674971,0.832659 2.459328,1.016992 4.260188,1.016992 1.520084,0 2.371884,-0.15485 3.465936,-0.619601 l 0.455295,-0.193787 0.503317,0.222727 c 0.755173,0.329189 1.946116,0.619532 2.933673,0.726053 5.112094,0.522809 10.030645,-3.466372 12.760987,-10.350272 0.793908,-1.99449 1.432639,-4.4729 1.664996,-6.399609 l 0.05839,-0.551905 -0.358114,-0.0677 C 35.443692,22.35266 34.28188,21.49097 33.788089,20.638959 33.652595,20.416277 33.468392,19.980371 33.371581,19.670541 l -0.174148,-0.542083 -0.619602,-0.164333 c -1.355486,-0.33887 -2.372227,-1.103738 -2.904728,-2.197798 -0.300143,-0.60029 -0.319484,-0.716653 -0.329168,-1.626775 v -0.977718 l -0.367956,-0.319876 c -0.89072,-0.78424 -1.365223,-1.936162 -1.28778,-3.098003 0.0291,-0.396949 0.07744,-0.8037804 0.116285,-0.8908998 0.04358,-0.1089237 0.02196,-0.1416156 -0.204126,-0.1307438 z" />
      <path
         style="fill:#a05a2c;stroke:none;stroke-width:0.264583px;stroke-linecap:butt;stroke-linejoin:miter;stroke-opacity:1"
         d="m 19.97546,10.49333 c 0,0 1.24091,-5.76607 2.33862,-6.59822 C 23.34975,3.11 24.30189,3.31046 24.06803,2.90955 23.83416,2.50865 22.64817,1.13889 22.0468,0.93844 20.2996,0.51106 19.7375,1.14462 19.99218,1.64002 c -0.0334,0.53454 0.80254,2.14252 0.80254,2.14252 0,0 -0.71903,1.29858 -1.52083,3.3031 -0.80182,2.00452 -1.50963,3.65827 -1.50963,3.65827 z"
         id="path157"
         sodipodi:nodetypes="csscccscc" />
    </g>
  </g>
</svg>
