<?xml version="1.0" encoding="UTF-8" standalone="no"?>
<svg
   xmlns:dc="http://purl.org/dc/elements/1.1/"
   xmlns:cc="http://creativecommons.org/ns#"
   xmlns:rdf="http://www.w3.org/1999/02/22-rdf-syntax-ns#"
   xmlns:svg="http://www.w3.org/2000/svg"
   xmlns="http://www.w3.org/2000/svg"
   xmlns:sodipodi="http://sodipodi.sourceforge.net/DTD/sodipodi-0.dtd"
   xmlns:inkscape="http://www.inkscape.org/namespaces/inkscape"
   width="116.68mm"
   height="24.132mm"
   viewBox="0 0 116.68 24.132"
   version="1.1"
   id="svg1117"
   inkscape:version="1.0.1 (3bc2e813f5, 2020-09-07)"
   sodipodi:docname="logo.svg">
  <defs
     id="defs1111" />
  <sodipodi:namedview
     id="base"
     pagecolor="#ffffff"
     bordercolor="#666666"
     borderopacity="1.0"
     inkscape:pageopacity="0.0"
     inkscape:pageshadow="2"
     inkscape:zoom="0.49497475"
     inkscape:cx="301.37843"
     inkscape:cy="475.75335"
     inkscape:document-units="mm"
     inkscape:current-layer="layer1"
     inkscape:document-rotation="0"
     showgrid="false"
     inkscape:window-width="1366"
     inkscape:window-height="745"
     inkscape:window-x="1592"
     inkscape:window-y="-8"
     inkscape:window-maximized="1" />
  <metadata
     id="metadata1114">
    <rdf:RDF>
      <cc:Work
         rdf:about="">
        <dc:format>image/svg+xml</dc:format>
        <dc:type
           rdf:resource="http://purl.org/dc/dcmitype/StillImage" />
        <dc:title></dc:title>
      </cc:Work>
    </rdf:RDF>
  </metadata>
  <g
     inkscape:label="Layer 1"
     inkscape:groupmode="layer"
     id="layer1">
    <g
       id="g1773">
      <g
         aria-label="simpleFit"
         id="text12"
         style="font-style:normal;font-variant:normal;font-weight:bold;font-stretch:normal;font-size:20.7449px;line-height:1.25;font-family:Sufrimeda;-inkscape-font-specification:'Sufrimeda Bold';fill:#000000;fill-opacity:1;stroke:none;stroke-width:0.518622"
         transform="translate(208.39649,58.51505)">
        <path
           d="m -172.78747,-42.900137 q -0.0622,0.497878 -0.45639,0.954266 -0.39415,0.456387 -1.0165,0.809051 -0.6016,0.331918 -1.38991,0.518622 -0.78831,0.207449 -1.65959,0.207449 h -3.11174 q -0.87128,0 -1.59735,-0.207449 -0.72608,-0.186704 -1.26544,-0.518622 -0.51863,-0.352664 -0.78831,-0.809051 -0.24894,-0.456388 -0.1867,-0.954266 l 0.22819,-1.638847 h 3.79632 l -0.16596,1.203204 q -0.0415,0.352664 0.33192,0.580858 0.39415,0.228193 0.99575,0.228193 h 1.0165 q 0.62235,0 1.03725,-0.228193 0.43564,-0.228194 0.49787,-0.580858 l 0.24894,-1.680337 q 0.0207,-0.331918 -0.37341,-0.580857 -0.3734,-0.248939 -0.91277,-0.248939 h -2.13673 q -0.87128,0 -1.59735,-0.186704 -0.70533,-0.207449 -1.22395,-0.539367 -0.49788,-0.352663 -0.74682,-0.788306 -0.24894,-0.456388 -0.1867,-0.975011 l 0.14521,-1.638847 q 0.0622,-0.518622 0.45639,-0.97501 0.4149,-0.456388 1.03724,-0.788306 0.62235,-0.352663 1.41066,-0.539367 0.7883,-0.207449 1.65959,-0.207449 h 2.77982 q 0.85054,0 1.55586,0.207449 0.72608,0.186704 1.22395,0.539367 0.51863,0.331918 0.78831,0.788306 0.26968,0.456388 0.20745,0.97501 -0.0415,0.456388 -0.35267,0.663837 -0.29042,0.207449 -0.80905,0.248939 -0.51862,0.04149 -1.2032,-0.06224 -0.68458,-0.124469 -1.49363,-0.311173 l 0.0207,-0.08298 q 0.0415,-0.352663 -0.33192,-0.601602 -0.35266,-0.269684 -0.95426,-0.269684 h -0.68458 q -0.56012,0 -1.0165,0.269684 -0.45639,0.248939 -0.47714,0.601602 l -0.14521,0.497878 q -0.0208,0.352663 0.37341,0.622347 0.39415,0.248939 0.93352,0.248939 h 2.07449 q 0.87128,0 1.59736,0.207449 0.72607,0.186704 1.24469,0.539367 0.51862,0.331918 0.78831,0.809051 0.26968,0.456388 0.20744,0.97501 z"
           style="fill:#7f2aff;stroke-width:0.518622"
           id="path1149" />
        <path
           d="m -170.11141,-52.276831 q 0.87129,-0.207449 1.57661,-0.207449 0.70533,0 1.16172,0.248938 0.47713,0.248939 0.66383,0.788307 0.20745,0.518622 0.0622,1.389908 l -1.30693,9.438929 h -3.81706 z m 4.27345,-3.381419 -0.33192,2.302684 h -3.77557 l 0.26968,-2.302684 z"
           style="fill:#7f2aff;stroke-width:0.518622"
           id="path1151" />
        <path
           d="m -151.77293,-52.48428 q 0.85054,0 1.57661,0.207449 0.72607,0.186704 1.24469,0.539367 0.51862,0.331918 0.78831,0.788306 0.26968,0.456388 0.20745,0.97501 l -1.32768,9.335205 q -0.70532,0.269684 -1.36916,0.228194 -0.66384,-0.02074 -1.18246,-0.311173 -0.49788,-0.290429 -0.76756,-0.809051 -0.24894,-0.518623 -0.14522,-1.244694 l 0.95427,-6.742093 q 0.0207,-0.352663 -0.35266,-0.601602 -0.35267,-0.269684 -0.93352,-0.269684 h -0.20745 q -0.26969,0 -0.53937,0.06224 -0.26968,0.06224 -0.49788,0.186704 -0.20745,0.103725 -0.35266,0.269684 -0.12447,0.165959 -0.12447,0.352663 l -1.22395,8.878817 h -3.79632 l 1.2447,-8.878817 q 0.0415,-0.352663 -0.31118,-0.601602 -0.35266,-0.269684 -0.95426,-0.269684 h -0.14522 q -0.6016,0 -1.05798,0.269684 -0.45639,0.248939 -0.47714,0.601602 l -1.2032,8.878817 h -3.90004 l 1.65959,-11.637888 q 0.76756,-0.08298 1.4314,-0.103725 0.68458,-0.04149 1.18246,0 0.49787,0.02074 0.7883,0.145214 0.31118,0.12447 0.37341,0.331919 1.2032,-0.580857 2.67609,-0.580857 1.03725,0 1.8463,0.290428 0.82979,0.290429 1.34842,0.767561 0.14521,-0.124469 0.29043,-0.207449 0.14521,-0.08298 0.26968,-0.145214 0.14521,-0.08298 0.29043,-0.124469 1.2032,-0.580857 2.69684,-0.580857 z"
           style="fill:#7f2aff;stroke-width:0.518622"
           id="path1153" />
        <path
           d="m -138.95259,-52.48428 q 0.85054,0 1.55586,0.207449 0.72608,0.186704 1.2447,0.539367 0.51862,0.331918 0.76756,0.788306 0.26968,0.456388 0.20745,0.97501 l -0.99576,7.074011 q -0.0622,0.497878 -0.45639,0.954266 -0.39415,0.456387 -1.0165,0.809051 -0.6016,0.331918 -1.36916,0.518622 -0.76756,0.207449 -1.59736,0.207449 h -1.03724 q -0.72607,0 -1.34842,-0.145214 -0.6016,-0.145214 -1.05799,-0.394153 l -0.53937,3.692592 q -0.72607,0.373408 -1.41065,0.352663 -0.66384,-0.02075 -1.18246,-0.331918 -0.49788,-0.311174 -0.76756,-0.871286 -0.26968,-0.539367 -0.1867,-1.223949 l 1.84629,-12.944817 q 0.87129,-0.12447 1.57661,-0.16596 0.70533,-0.06223 1.20321,-0.02074 0.49788,0.04149 0.74681,0.186705 0.26969,0.124469 0.24894,0.373408 1.20321,-0.580857 2.61386,-0.580857 z m -0.0622,2.96652 q 0.0207,-0.352663 -0.35266,-0.601602 -0.37341,-0.269684 -0.95427,-0.269684 h -0.99575 q -0.6016,0 -1.05799,0.269684 -0.45639,0.248939 -0.47714,0.601602 l -0.89203,6.18198 q -0.0415,0.352664 0.33192,0.580858 0.37341,0.228193 0.97501,0.228193 h 0.99576 q 0.62235,0 1.03724,-0.228193 0.43565,-0.228194 0.49788,-0.580858 z"
           style="fill:#7f2aff;stroke-width:0.518622"
           id="path1155" />
        <path
           d="m -133.06107,-55.65825 q 0.76756,-0.373408 1.45214,-0.331919 0.70533,0.02075 1.18246,0.373409 0.47714,0.352663 0.70533,0.995755 0.24894,0.622347 0.12447,1.452143 l -1.74257,12.550664 q -0.72607,0.414898 -1.41066,0.456388 -0.66383,0.04149 -1.18246,-0.269684 -0.49787,-0.290428 -0.76756,-0.89203 -0.26968,-0.622347 -0.14521,-1.493633 z"
           style="fill:#7f2aff;stroke-width:0.518622"
           id="path1157" />
        <path
           d="m -128.74615,-49.974148 q 0.0622,-0.518622 0.45639,-0.97501 0.39415,-0.456388 1.0165,-0.788306 0.62235,-0.352663 1.41065,-0.539367 0.80905,-0.207449 1.68034,-0.207449 h 3.11174 q 0.87128,0 1.59735,0.207449 0.72607,0.186704 1.22395,0.518622 0.51862,0.331918 0.76756,0.788306 0.24894,0.435643 0.16596,0.933521 l -0.49788,3.671847 h -7.59263 l -0.39415,2.821306 q -0.0415,0.331919 0.33192,0.580858 0.3734,0.248938 0.97501,0.248938 h 0.99575 q 0.56011,0 1.03725,-0.248938 0.47713,-0.248939 0.56011,-0.580858 v -0.373408 q 1.14097,-0.435643 1.99151,-0.622347 0.85054,-0.186704 1.32767,-0.103724 0.49788,0.08298 0.58086,0.456387 0.10373,0.352664 -0.22819,1.016501 -0.20745,0.477132 -0.62235,0.93352 -0.39415,0.435643 -0.97501,0.809051 -0.58086,0.352663 -1.32767,0.580857 -0.72608,0.207449 -1.59736,0.207449 h -3.09099 q -0.87129,0 -1.59736,-0.186704 -0.72607,-0.207449 -1.24469,-0.539367 -0.51863,-0.352664 -0.78831,-0.809051 -0.26968,-0.477133 -0.20745,-0.995755 z m 3.6511,1.535123 h 3.83781 l 0.18671,-1.078735 q 0.0207,-0.352663 -0.37341,-0.601602 -0.37341,-0.269684 -0.93352,-0.269684 h -0.99576 q -0.6016,0 -1.05799,0.269684 -0.45639,0.248939 -0.47713,0.601602 z"
           style="fill:#7f2aff;stroke-width:0.518622"
           id="path1159" />
        <path
           d="m -111.54865,-53.645995 -0.53937,3.817062 h 5.55963 l -0.29043,2.07449 h -5.53888 l -0.47714,3.443653 q -0.14521,0.892031 -0.51862,1.680337 -0.35266,0.788306 -0.91277,1.327673 -0.56012,0.518623 -1.30693,0.726072 -0.74682,0.207449 -1.63885,-0.06223 l 2.09523,-15.081542 h 10.8081 q 0.12447,0.539368 -0.10373,0.933521 -0.22819,0.394153 -0.70532,0.643092 -0.47714,0.248938 -1.18246,0.373408 -0.68459,0.124469 -1.51438,0.124469 z"
           style="font-style:normal;font-variant:normal;font-weight:bold;font-stretch:normal;font-family:Sufrimeda;-inkscape-font-specification:'Sufrimeda Bold';fill:#ccaaff;stroke-width:0.518622"
           id="path1161" />
        <path
           d="m -103.43741,-52.276831 q 0.87129,-0.207449 1.57662,-0.207449 0.70532,0 1.16171,0.248938 0.47713,0.248939 0.66384,0.788307 0.207447,0.518622 0.06223,1.389908 l -1.30693,9.438929 h -3.81706 z m 4.273454,-3.381419 -0.331919,2.302684 h -3.775575 l 0.26969,-2.302684 z"
           style="font-style:normal;font-variant:normal;font-weight:bold;font-stretch:normal;font-family:Sufrimeda;-inkscape-font-specification:'Sufrimeda Bold';fill:#ccaaff;stroke-width:0.518622"
           id="path1163" />
        <path
           d="m -91.84102,-42.713433 -0.290428,1.908531 q -0.311174,0.103725 -0.663837,0.145214 -0.331919,0.02075 -0.684582,0.02075 h -0.912775 q -0.871286,0 -1.597358,-0.186704 -0.726071,-0.207449 -1.244694,-0.539367 -0.497877,-0.352664 -0.767561,-0.809051 -0.269684,-0.477133 -0.228194,-0.995755 l 1.05799,-7.032522 h -1.431398 l 0.311173,-2.074489 h 1.369164 l 0.165959,-0.954266 q 0.08298,-0.663837 0.497878,-1.203204 0.435643,-0.539367 1.037245,-0.871286 0.601602,-0.352663 1.286183,-0.477133 0.705327,-0.124469 1.327674,0.06224 l -0.539367,3.443654 h 1.431398 l -0.311174,2.074489 h -1.410653 l -0.912776,6.659113 q -0.06223,0.331919 0.290429,0.580858 0.373408,0.248938 0.97501,0.248938 h 1.05799 z"
           style="font-style:normal;font-variant:normal;font-weight:bold;font-stretch:normal;font-family:Sufrimeda;-inkscape-font-specification:'Sufrimeda Bold';fill:#ccaaff;stroke-width:0.518622"
           id="path1165" />
      </g>
      <path
         d="M 7.179716,0.05083503 C 6.998299,0.10348362 6.8227211,0.40782387 6.61203,1.0515873 6.4774286,1.4671062 6.4481666,1.6485352 6.4481666,2.1635484 c 0,0.538424 0.01759,0.6554719 0.1521671,0.9363772 C 6.7759055,3.4686289 7.1563112,3.8724453 7.4957465,4.0538744 7.928831,4.2762557 11.013041,5.364806 11.030594,5.3004309 11.053926,5.1950914 10.591665,3.6676115 10.340015,3.0296992 9.8952345,1.9060418 9.4153345,1.1218197 8.8476546,0.59511018 8.3150878,0.09179333 7.7239911,-0.10133207 7.179716,0.05083503 Z"
         id="path74"
         style="fill:#00ff00;stroke:none;stroke-width:0.00585241" />
      <path
         id="path86"
         style="fill:#ff003b;stroke:none;stroke-width:0.00585241;fill-opacity:1"
         d="m 16.683562,5.8768028 c -0.04553,0.00219 -0.10477,0.00737 -0.180849,0.014682 -0.187295,0.017591 -0.801955,0.1052486 -1.363791,0.1930408 -1.972262,0.3218759 -3.160193,0.4330835 -3.160193,0.3101786 0,-0.00675 0.0048,-0.030496 0.0059,-0.041545 l -1.24664,0.1411876 H 10.176058 C 9.1870003,6.4883015 7.6829669,6.3188392 6.3895777,6.0554754 4.9440308,5.762862 3.3170269,5.9794365 2.3104089,6.5880564 0.31474944,7.799494 -0.44021801,10.561604 0.25037745,14.125714 c 0.55596605,2.844263 1.97240565,5.647732 3.82176085,7.543904 0.7959416,0.819341 1.4454349,1.304909 2.3174394,1.737994 1.0124554,0.503311 1.4865691,0.614732 2.5751194,0.614732 0.9188321,0 1.4337119,-0.0936 2.0950239,-0.374525 l 0.275209,-0.117136 0.304235,0.13463 c 0.456474,0.198982 1.176352,0.374483 1.773292,0.438871 3.090064,0.316018 6.063138,-2.095288 7.713524,-6.25634 0.479887,-1.205592 0.865975,-2.703695 1.006426,-3.868316 l 0.0353,-0.333605 -0.216466,-0.04092 c -0.526714,-0.09364 -1.228985,-0.614501 -1.527463,-1.129509 -0.0819,-0.134602 -0.193244,-0.39809 -0.251762,-0.585371 l -0.105266,-0.327668 -0.374525,-0.09933 c -0.819344,-0.204837 -1.433924,-0.66717 -1.7558,-1.328487 C 17.755,9.7717861 17.743309,9.7014487 17.737455,9.1513153 V 8.5603229 L 17.51504,8.3669703 C 16.976634,7.892927 16.689815,7.1966348 16.736627,6.4943468 c 0.01759,-0.2399403 0.04681,-0.4858541 0.07029,-0.5385144 0.02634,-0.06584 0.01327,-0.085601 -0.123386,-0.07903 z" />
      <path
         style="fill:#a05a2c;stroke:none;stroke-width:0.15993px;stroke-linecap:butt;stroke-linejoin:miter;stroke-opacity:1"
         d="m 12.074572,6.3428548 c 0,0 0.750082,-3.4853666 1.413605,-3.9883691 0.626023,-0.4745687 1.201554,-0.3533984 1.060195,-0.595733 -0.141365,-0.2423285 -0.85825,-1.07029555 -1.221755,-1.19145983 -1.056115,-0.2583347 -1.395883,0.12462784 -1.241939,0.42407801 -0.02019,0.32310882 0.485105,1.29507062 0.485105,1.29507062 0,0 -0.434626,0.7849414 -0.919283,1.9965963 -0.48467,1.2116549 -0.912513,2.2112829 -0.912513,2.2112829 z"
         id="path157"
         sodipodi:nodetypes="csscccscc" />
    </g>
  </g>
</svg>
